<?xml version="1.0" encoding="UTF-8"?>
<svg version="1.1" xmlns="http://www.w3.org/2000/svg" width="418" height="416">
<path d="M0 0 C13.57692646 13.75098962 13.92886874 36.62095658 13.8359375 54.66992188 C13.825625 55.72703369 13.8153125 56.78414551 13.8046875 57.87329102 C13.77318932 61.13113779 13.76366736 64.38849943 13.7578125 67.64648438 C13.74865262 69.73828713 13.73828011 71.83008501 13.7265625 73.921875 C13.72231262 74.88549454 13.71806274 75.84911407 13.71368408 76.8419342 C13.66082479 81.84215214 13.37049966 86.61294815 12.5234375 91.54296875 C16.1534375 91.54296875 19.7834375 91.54296875 23.5234375 91.54296875 C23.51296387 90.75688232 23.50249023 89.9707959 23.49169922 89.16088867 C23.30774645 73.00680881 23.48388132 56.9246874 24.3984375 40.79296875 C24.43773376 40.06379242 24.47703003 39.33461609 24.51751709 38.58334351 C25.89468992 13.51702782 25.89468992 13.51702782 31.5234375 5.54296875 C32.12091797 4.68638672 32.12091797 4.68638672 32.73046875 3.8125 C37.18313916 -2.00035215 43.8383711 -7.1400659 50.94140625 -9.13671875 C62.72143089 -10.59808338 72.23260245 -9.94684137 81.7734375 -2.70703125 C90.51134946 4.73035428 94.5805062 13.03920689 95.5234375 24.54296875 C95.75511411 34.18539776 95.31155079 43.69514714 94.3984375 53.29296875 C94.33641144 53.9543988 94.27438538 54.61582886 94.21047974 55.29730225 C93.0826524 67.01402921 90.85095038 78.26629802 87.92578125 89.67578125 C86.34980009 95.90096005 85.39910597 102.1862169 84.5234375 108.54296875 C85.30299805 108.84404541 86.08255859 109.14512207 86.88574219 109.45532227 C89.51674551 110.54020932 91.5032711 111.77784395 93.7734375 113.48046875 C94.45921875 113.98449219 95.145 114.48851562 95.8515625 115.0078125 C97.5234375 116.54296875 97.5234375 116.54296875 98.5234375 119.54296875 C94.68897119 125.43161345 88.75355194 130.35446358 82.5234375 133.54296875 C77.65003035 133.48695258 75.37766264 131.93198408 71.8984375 128.66796875 C67.39660296 124.91754825 63.9078877 123.45243606 58.21484375 122.32421875 C52.35485938 121.08401042 46.65189181 119.30286492 40.90893555 117.61083984 C24.79640642 112.93112545 9.78279711 114.49852076 -6.4765625 117.54296875 C-7.16427734 117.67155273 -7.85199219 117.80013672 -8.56054688 117.93261719 C-25.8534515 121.3684673 -41.34467849 130.01931752 -51.4765625 144.54296875 C-57.43353066 154.21399803 -59.95956817 163.59877934 -62.05175781 174.61474609 C-62.4765625 176.54296875 -62.4765625 176.54296875 -63.54296875 179.61328125 C-64.65099727 183.09035819 -64.89558831 186.27909138 -65.1015625 189.91796875 C-65.17632812 191.16320312 -65.25109375 192.4084375 -65.328125 193.69140625 C-65.37710938 194.63242188 -65.42609375 195.5734375 -65.4765625 196.54296875 C-64.8165625 195.55296875 -64.1565625 194.56296875 -63.4765625 193.54296875 C-62.1565625 193.87296875 -60.8365625 194.20296875 -59.4765625 194.54296875 C-59.4765625 199.49296875 -59.4765625 204.44296875 -59.4765625 209.54296875 C-58.1565625 210.20296875 -56.8365625 210.86296875 -55.4765625 211.54296875 C-53.2265625 214.16796875 -53.2265625 214.16796875 -51.4765625 216.54296875 C-52.83861512 221.00059551 -54.64633137 222.93144752 -58.4765625 225.54296875 C-59.4046875 225.97609375 -60.3328125 226.40921875 -61.2890625 226.85546875 C-64.96550331 228.80181976 -67.69265157 231.21821336 -70.7421875 234.01953125 C-73.8419531 236.74229833 -75.99589534 236.67851156 -80.0390625 236.66796875 C-81.03035156 236.67054688 -82.02164063 236.673125 -83.04296875 236.67578125 C-85.4765625 236.54296875 -85.4765625 236.54296875 -86.4765625 235.54296875 C-86.64064206 230.70262159 -86.43004525 226.31038248 -85.4765625 221.54296875 C-87.4565625 221.54296875 -89.4365625 221.54296875 -91.4765625 221.54296875 C-92.58026293 218.23186745 -92.40329891 216.29547926 -92.0390625 212.85546875 C-91.93722656 211.86160156 -91.83539063 210.86773437 -91.73046875 209.84375 C-91.64667969 209.08449219 -91.56289062 208.32523438 -91.4765625 207.54296875 C-93.4565625 207.87296875 -95.4365625 208.20296875 -97.4765625 208.54296875 C-99.0442089 202.61834651 -97.4236689 197.75254026 -96.02294922 191.91064453 C-95.41212381 189.26373442 -94.86847906 186.60668729 -94.32421875 183.9453125 C-88.83163793 158.06473559 -78.927001 133.15550663 -58.4765625 115.54296875 C-56.76727102 114.48919426 -55.03956474 113.4642675 -53.2890625 112.48046875 C-50.25069338 110.57825752 -50.25069338 110.57825752 -48.81640625 107.41796875 C-48.60171608 101.59333108 -50.22240959 96.01044483 -51.6171875 90.3984375 C-53.44328807 82.20588631 -54.43655712 73.86599178 -55.4765625 65.54296875 C-55.63753418 64.27404785 -55.63753418 64.27404785 -55.80175781 62.97949219 C-57.13159931 52.14233945 -57.71213858 41.33478706 -57.8515625 30.41796875 C-57.89059692 28.74710205 -57.89059692 28.74710205 -57.93041992 27.04248047 C-57.95321892 16.5533697 -55.3443761 7.65810702 -48.515625 -0.44921875 C-34.56154524 -14.18944288 -13.98450576 -12.81385709 0 0 Z " fill="#01F96E" transform="translate(185.4765625,59.45703125)"/>
<path d="M0 0 C0.69867188 0.24878906 1.39734375 0.49757812 2.1171875 0.75390625 C3.06335938 1.03363281 4.00953125 1.31335938 4.984375 1.6015625 C12.54456874 4.02671556 12.54456874 4.02671556 14.390625 6.37109375 C16.22299662 12.38048454 16.57280331 19.60357306 15.1171875 25.75390625 C12.42480144 29.32205745 9.03452153 30.73971001 5.1171875 32.75390625 C3.58045185 33.97180886 2.04408212 35.19036504 0.52416992 36.42919922 C-6.16381568 41.72347047 -11.26422873 42.56923733 -19.5703125 41.77734375 C-24.13312251 41.74505972 -26.3460207 43.32812424 -29.61328125 46.359375 C-30.09410156 46.88144531 -30.57492187 47.40351563 -31.0703125 47.94140625 C-31.9984375 48.86953125 -32.9265625 49.79765625 -33.8828125 50.75390625 C-34.5428125 50.75390625 -35.2028125 50.75390625 -35.8828125 50.75390625 C-33.77402408 63.17078544 -30.77483575 74.98352696 -26.70117188 86.90991211 C-23.72856477 95.71962561 -21.46715325 104.40157319 -21.8828125 113.75390625 C-25.16977483 114.55343763 -26.59304442 114.85049561 -29.8828125 113.75390625 C-29.58246094 114.34558594 -29.28210938 114.93726563 -28.97265625 115.546875 C-25.82792399 122.08152203 -25.82792399 122.08152203 -26.1328125 125.81640625 C-26.5040625 126.77546875 -26.5040625 126.77546875 -26.8828125 127.75390625 C-29.8528125 126.76390625 -29.8528125 126.76390625 -32.8828125 125.75390625 C-32.66625 126.48996094 -32.4496875 127.22601563 -32.2265625 127.984375 C-31.80890625 129.44810547 -31.80890625 129.44810547 -31.3828125 130.94140625 C-31.104375 131.90433594 -30.8259375 132.86726562 -30.5390625 133.859375 C-29.91603642 136.60736501 -29.75978438 138.94989041 -29.8828125 141.75390625 C-33.02799611 142.54020215 -35.54451779 142.73289973 -38.8203125 142.62890625 C-42.97407993 142.62115668 -45.3584517 143.38035714 -48.8828125 145.75390625 C-50.1861351 147.13886245 -51.47624988 148.53629034 -52.7578125 149.94140625 C-67.6495518 165.20420218 -93.49261712 170.4611703 -113.8828125 172.75390625 C-114.94886719 172.88410156 -116.01492187 173.01429688 -117.11328125 173.1484375 C-128.30438031 174.25719897 -139.65024647 173.84317349 -150.8828125 173.75390625 C-151.02452881 174.52645752 -151.16624512 175.29900879 -151.31225586 176.0949707 C-153.89155496 188.11514466 -163.858635 199.20113652 -173.8828125 205.75390625 C-174.56601563 206.22828125 -175.24921875 206.70265625 -175.953125 207.19140625 C-184.89857156 213.1777127 -195.99573521 212.95531862 -206.3984375 211.140625 C-218.70219524 207.83143897 -226.44657719 200.52090627 -232.8828125 189.75390625 C-236.93124146 182.68149834 -238.27088912 176.9035153 -237.8828125 168.75390625 C-236.58830235 165.22586303 -234.85510036 163.74401566 -231.7578125 161.69140625 C-230.85804688 161.08425781 -229.95828125 160.47710937 -229.03125 159.8515625 C-227.47277344 158.81322266 -227.47277344 158.81322266 -225.8828125 157.75390625 C-223.37716208 156.05379369 -220.87938337 154.34231715 -218.3828125 152.62890625 C-217.70444336 152.16395752 -217.02607422 151.69900879 -216.32714844 151.2199707 C-208.84913288 146.07558784 -201.50671476 140.74739987 -194.16503906 135.41113281 C-190.40987102 132.68433771 -186.64589789 129.9697584 -182.8828125 127.25390625 C-181.38148897 126.16930052 -179.88018689 125.08466509 -178.37890625 124 C-175.39372142 121.84385326 -172.40659862 119.69043121 -169.41796875 117.5390625 C-161.53912775 111.8638886 -153.69129763 106.15059561 -145.8828125 100.37890625 C-138.6429963 95.0280551 -131.37485109 89.74859865 -123.8828125 84.75390625 C-125.10455033 80.95294412 -127.47129912 79.27236352 -130.95703125 77.4609375 C-134.34978351 76.21532257 -136.48298218 76.66110365 -139.8828125 77.75390625 C-141.74821499 79.15295812 -143.42888815 80.67150063 -145.140625 82.25390625 C-149.81660253 86.27986 -154.74133972 87.08811413 -160.671875 87.15234375 C-167.47488654 85.92635934 -173.37821811 79.65234496 -177.8828125 74.75390625 C-179.4453125 71.19140625 -179.4453125 71.19140625 -178.8828125 67.75390625 C-175.54572882 62.52120106 -171.21854289 58.86871677 -165.8828125 55.75390625 C-162.5769043 55.15112305 -162.5769043 55.15112305 -158.89453125 55.015625 C-158.21218918 54.98732101 -157.52984711 54.95901703 -156.826828 54.92985535 C-154.5120958 54.84492474 -152.1987234 54.79521304 -149.8828125 54.75390625 C-149.03350159 54.73700745 -148.18419067 54.72010864 -147.30914307 54.70269775 C-141.73213369 54.60276504 -136.15670378 54.56812682 -130.57885742 54.56860352 C-127.66115478 54.56638022 -124.74380987 54.54803869 -121.82617188 54.52929688 C-119.95573044 54.52636839 -118.08528724 54.52437996 -116.21484375 54.5234375 C-115.35027054 54.51625198 -114.48569733 54.50906647 -113.59492493 54.50166321 C-109.28996169 54.5180376 -105.73173028 54.58252086 -101.8828125 56.75390625 C-101.2434375 57.62015625 -100.6040625 58.48640625 -99.9453125 59.37890625 C-98.09650222 62.03584169 -98.09650222 62.03584169 -95.109375 62.12890625 C-91.16274006 61.67021744 -89.39006545 60.47485301 -86.1953125 58.12890625 C-85.37824829 57.53807251 -85.37824829 57.53807251 -84.54467773 56.93530273 C-82.64628937 55.55606014 -80.76482815 54.15539757 -78.8828125 52.75390625 C-77.35742421 51.63192367 -75.8313489 50.51087467 -74.3046875 49.390625 C-71.04071113 46.99218965 -67.78256548 44.58608169 -64.52734375 42.17578125 C-60.03638866 38.85729637 -55.50254797 35.60373114 -50.94946289 32.37133789 C-46.73088753 29.37194003 -42.55128632 26.32248503 -38.3828125 23.25390625 C-32.91836733 19.23193884 -27.43434449 15.24000534 -21.88427734 11.33666992 C-19.13376519 9.39672358 -16.47200651 7.42441661 -13.84375 5.31640625 C-5.36210118 -1.41283579 -5.36210118 -1.41283579 0 0 Z M-82.77050781 82.13989258 C-87.05562838 85.38898905 -91.37216511 88.57936054 -95.7578125 91.69140625 C-96.31847412 92.089646 -96.87913574 92.48788574 -97.45678711 92.89819336 C-98.63257284 93.73318121 -99.80843765 94.56805773 -100.984375 95.40283203 C-106.87737202 99.59674221 -112.73963278 103.83303716 -118.58837891 108.08837891 C-120.13218668 109.20902762 -121.67879513 110.32582715 -123.22802734 111.43896484 C-125.47468134 113.05464769 -127.7109344 114.6838058 -129.9453125 116.31640625 C-130.63028809 116.8047998 -131.31526367 117.29319336 -132.02099609 117.79638672 C-135.50377576 120.22769828 -135.50377576 120.22769828 -137.61499023 123.77709961 C-137.97113525 126.40581997 -137.37381988 127.59194556 -135.8828125 129.75390625 C-132.06883302 131.02523274 -128.47939033 130.89903249 -124.5078125 130.87890625 C-123.37472656 130.88470703 -123.37472656 130.88470703 -122.21875 130.890625 C-118.30695319 130.88378619 -114.70260031 130.71265777 -110.8828125 129.75390625 C-111.14835937 130.39457031 -111.41390625 131.03523438 -111.6875 131.6953125 C-112.04070312 132.56027344 -112.39390625 133.42523438 -112.7578125 134.31640625 C-113.10585937 135.16332031 -113.45390625 136.01023437 -113.8125 136.8828125 C-115.02683886 140.14025432 -115.96302184 143.4020565 -116.8828125 146.75390625 C-113.40058502 146.36070039 -109.92303491 145.9350105 -106.4453125 145.50390625 C-105.47142578 145.39433594 -104.49753906 145.28476562 -103.49414062 145.171875 C-96.97371409 144.34319203 -91.72422878 142.73041527 -85.8828125 139.75390625 C-84.62513632 139.16897765 -83.36732965 138.5843295 -82.109375 138 C-71.94923041 132.99597669 -61.95257057 126.32702013 -56.8828125 115.75390625 C-56.69583265 113.27996867 -56.69583265 113.27996867 -57.1328125 110.81640625 C-57.25011719 109.95402344 -57.36742187 109.09164062 -57.48828125 108.203125 C-57.61847656 107.39488281 -57.74867188 106.58664062 -57.8828125 105.75390625 C-58.0684375 104.55765625 -58.2540625 103.36140625 -58.4453125 102.12890625 C-58.661875 100.95328125 -58.661875 100.95328125 -58.8828125 99.75390625 C-56.9028125 100.41390625 -54.9228125 101.07390625 -52.8828125 101.75390625 C-52.55533943 96.40517938 -52.70750928 92.65200987 -55.16015625 87.76953125 C-56.12719899 85.0722661 -56.21752051 82.5470892 -56.3828125 79.69140625 C-56.66533727 74.90050754 -57.30708217 71.78548415 -59.8828125 67.75390625 C-67.20293007 67.75390625 -77.04460119 77.79830809 -82.77050781 82.13989258 Z " fill="#03F870" transform="translate(337.8828125,155.24609375)"/>
<path d="M0 0 C6.46384834 10.77308056 2.9976086 27.950153 1.875 39.75 C1.81297394 40.41143005 1.75094788 41.07286011 1.68704224 41.7543335 C0.5592149 53.47106046 -1.67248712 64.72332927 -4.59765625 76.1328125 C-6.17363741 82.3579913 -7.12433153 88.64324815 -8 95 C-6.68 95.33 -5.36 95.66 -4 96 C-4 96.99 -4 97.98 -4 99 C-4.66 99 -5.32 99 -6 99 C-6 98.34 -6 97.68 -6 97 C-7.98 97 -9.96 97 -12 97 C-12.2919519 91.45291384 -11.19088986 86.38027025 -10 81 C-9.34 81 -8.68 81 -8 81 C-6.92375586 75.55547082 -6.67807034 70.15417411 -6.4375 64.625 C-6.39431641 63.69816406 -6.35113281 62.77132812 -6.30664062 61.81640625 C-6.20123814 59.54439706 -6.09911394 57.27229075 -6 55 C-5.01 55 -4.02 55 -3 55 C-2.99191315 54.38469925 -2.98382629 53.7693985 -2.97549438 53.13545227 C-2.8893929 46.72754353 -2.7898866 40.31994213 -2.68261719 33.91235352 C-2.64434985 31.52145553 -2.60949307 29.13050041 -2.578125 26.73950195 C-2.53242628 23.30138744 -2.47443878 19.86366548 -2.4140625 16.42578125 C-2.39673569 14.82395744 -2.39673569 14.82395744 -2.37905884 13.18977356 C-2.35918915 12.18911362 -2.33931946 11.18845367 -2.31884766 10.1574707 C-2.30552399 9.28032913 -2.29220032 8.40318756 -2.2784729 7.49946594 C-1.96882924 4.7202232 -1.14338326 2.54052532 0 0 Z " fill="#1AB65D" transform="translate(278,73)"/>
<path d="M0 0 C2.95057094 0.005453 5.90099561 -0.00002848 8.8515625 -0.00634766 C10.73177117 -0.00568835 12.61197975 -0.00441025 14.4921875 -0.00244141 C15.37224457 -0.00446564 16.25230164 -0.00648987 17.1590271 -0.00857544 C23.30121556 0.01535387 23.30121556 0.01535387 25.53125 1.13037109 C25.20125 1.79037109 24.87125 2.45037109 24.53125 3.13037109 C23.93513916 3.12370926 23.33902832 3.11704742 22.72485352 3.11018372 C16.4951723 3.04358009 10.265593 2.99846693 4.03564453 2.96557617 C1.7136626 2.95053198 -0.60829112 2.93009164 -2.93017578 2.90405273 C-6.27643823 2.86747764 -9.62232344 2.85060055 -12.96875 2.83740234 C-14.51453735 2.81417656 -14.51453735 2.81417656 -16.09155273 2.79048157 C-22.31751528 2.78904262 -26.75069069 3.68788081 -32.46875 6.13037109 C-33.45875 6.13037109 -34.44875 6.13037109 -35.46875 6.13037109 C-35.46875 6.79037109 -35.46875 7.45037109 -35.46875 8.13037109 C-36.12875 8.13037109 -36.78875 8.13037109 -37.46875 8.13037109 C-37.46875 8.79037109 -37.46875 9.45037109 -37.46875 10.13037109 C-39.21875 12.25537109 -39.21875 12.25537109 -41.46875 14.13037109 C-42.78875 14.13037109 -44.10875 14.13037109 -45.46875 14.13037109 C-45.46875 14.79037109 -45.46875 15.45037109 -45.46875 16.13037109 C-44.80875 16.13037109 -44.14875 16.13037109 -43.46875 16.13037109 C-43.46875 17.12037109 -43.46875 18.11037109 -43.46875 19.13037109 C-42.80875 19.13037109 -42.14875 19.13037109 -41.46875 19.13037109 C-41.46875 20.12037109 -41.46875 21.11037109 -41.46875 22.13037109 C-40.80875 22.13037109 -40.14875 22.13037109 -39.46875 22.13037109 C-39.79875 23.12037109 -40.12875 24.11037109 -40.46875 25.13037109 C-44.28847698 23.62976406 -46.35877382 21.64699806 -48.46875 18.13037109 C-48.67436266 14.42934315 -48.29393921 12.19981631 -46.00390625 9.23193359 C-40.70947379 3.74055288 -36.34133504 0.81221017 -28.5546875 0.45068359 C-27.86845306 0.41766144 -27.18221863 0.38463928 -26.47518921 0.35061646 C-17.6564703 -0.02479557 -8.82505692 -0.01948467 0 0 Z " fill="#0FB45A" transform="translate(207.46875,209.86962890625)"/>
<path d="M0 0 C0.33 0 0.66 0 1 0 C1 12.21 1 24.42 1 37 C-4.28 37 -9.56 37 -15 37 C-15 27.43 -15 17.86 -15 8 C-14.67 8 -14.34 8 -14 8 C-13.67 9.65 -13.34 11.3 -13 13 C-12.67 13 -12.34 13 -12 13 C-11.81548975 27.78132118 -11.81548975 27.78132118 -13 34 C-9.37 34 -5.74 34 -2 34 C-2.01047363 33.04109863 -2.02094727 32.08219727 -2.03173828 31.09423828 C-2.06789328 27.54219281 -2.09088393 23.99016366 -2.10986328 20.43798828 C-2.11993118 18.89954902 -2.13358646 17.36112893 -2.15087891 15.82275391 C-2.17509317 13.61355867 -2.18647491 11.40461605 -2.1953125 9.1953125 C-2.20563507 8.50567413 -2.21595764 7.81603577 -2.22659302 7.10549927 C-2.22699478 5.40199094 -2.12191026 3.69914057 -2 2 C-1.34 1.34 -0.68 0.68 0 0 Z " fill="#0C984B" transform="translate(211,117)"/>
<path d="M0 0 C0.495 1.485 0.495 1.485 1 3 C0.34 3 -0.32 3 -1 3 C-1 3.66 -1 4.32 -1 5 C-1.66 5 -2.32 5 -3 5 C-3 6.32 -3 7.64 -3 9 C-5.64 9 -8.28 9 -11 9 C-11 9.66 -11 10.32 -11 11 C-12.98 11 -14.96 11 -17 11 C-17 11.66 -17 12.32 -17 13 C-16.34 13.33 -15.68 13.66 -15 14 C-18.63002273 16.25280305 -21.91194458 16.35580521 -26.125 16.5625 C-30.72633179 16.63762616 -30.72633179 16.63762616 -35 18 C-37.04055005 18.07065617 -39.08334257 18.08421976 -41.125 18.0625 C-42.22070312 18.05347656 -43.31640625 18.04445313 -44.4453125 18.03515625 C-45.70988281 18.01775391 -45.70988281 18.01775391 -47 18 C-46.67 17.34 -46.34 16.68 -46 16 C-43.4375 15.375 -43.4375 15.375 -41 15 C-41 14.67 -41 14.34 -41 14 C-39.09927734 13.74476563 -39.09927734 13.74476563 -37.16015625 13.484375 C-24.60455715 11.80040887 -24.60455715 11.80040887 -13 7 C-11.2531973 6.07369548 -9.50638148 5.14741555 -7.75927734 4.22167969 C-5.1610702 2.83587636 -2.57989139 1.41953838 0 0 Z " fill="#0FE972" transform="translate(265,287)"/>
<path d="M0 0 C0.66 0.99 1.32 1.98 2 3 C2.66 3.33 3.32 3.66 4 4 C4 7.90432869 3.31626692 10.38026598 2 14 C1.34 14 0.68 14 0 14 C-0.33 16.31 -0.66 18.62 -1 21 C-1.66 21 -2.32 21 -3 21 C-3.33 20.01 -3.66 19.02 -4 18 C-4.02578125 18.62648437 -4.0515625 19.25296875 -4.078125 19.8984375 C-4.13484375 20.71570313 -4.1915625 21.53296875 -4.25 22.375 C-4.29640625 23.18710938 -4.3428125 23.99921875 -4.390625 24.8359375 C-5 27 -5 27 -6.859375 28.3515625 C-9 29 -9 29 -12 28 C-10.04656998 19.71827065 -6.16549058 6.16549058 0 0 Z " fill="#07F770" transform="translate(107,201)"/>
<path d="M0 0 C0 3.3 0 6.6 0 10 C1.98 10 3.96 10 6 10 C5.34 15.61 4.68 21.22 4 27 C3.34 27 2.68 27 2 27 C1.67 28.32 1.34 29.64 1 31 C0.91666643 26.1666528 1.04738513 21.76307437 2 17 C0.02 17 -1.96 17 -4 17 C-5.04574631 13.86276108 -5.06992517 11.71961247 -5 8.4375 C-4.81633753 4.56876349 -4.81633753 4.56876349 -6 1 C-4 0 -4 0 0 0 Z " fill="#12D16A" transform="translate(98,264)"/>
<path d="M0 0 C0 0.66 0 1.32 0 2 C0.66 2 1.32 2 2 2 C2 2.66 2 3.32 2 4 C0.02 4 -1.96 4 -4 4 C-4 5.32 -4 6.64 -4 8 C-6.64 8.33 -9.28 8.66 -12 9 C-12.66 10.65 -13.32 12.3 -14 14 C-14.66 14 -15.32 14 -16 14 C-16 15.32 -16 16.64 -16 18 C-16.99 17.67 -17.98 17.34 -19 17 C-18.67 16.01 -18.34 15.02 -18 14 C-19.98 14.33 -21.96 14.66 -24 15 C-24.33 16.65 -24.66 18.3 -25 20 C-26.65 20.33 -28.3 20.66 -30 21 C-26.41772153 14.6883665 -22.01453652 11.47528135 -16.125 7.4375 C-15.41730469 6.94314453 -14.70960937 6.44878906 -13.98046875 5.93945312 C-5.3485707 0 -5.3485707 0 0 0 Z " fill="#0BEE72" transform="translate(136,300)"/>
<path d="M0 0 C-2 2 -2 2 -5.4765625 2.1953125 C-6.85950968 2.18201493 -8.24238654 2.15816232 -9.625 2.125 C-10.33140625 2.11597656 -11.0378125 2.10695312 -11.765625 2.09765625 C-13.51056098 2.07407603 -15.25532295 2.03820461 -17 2 C-17 2.66 -17 3.32 -17 4 C-18.32 4 -19.64 4 -21 4 C-21 4.66 -21 5.32 -21 6 C-21.66 6 -22.32 6 -23 6 C-23 6.66 -23 7.32 -23 8 C-24.61974559 9.71230248 -26.2958946 11.37163262 -28 13 C-28.886875 13.886875 -29.77375 14.77375 -30.6875 15.6875 C-32.125 17.125 -33.5625 18.5625 -35 20 C-35.99 20 -36.98 20 -38 20 C-36.48132892 13.25035076 -32.37423258 8.52273132 -26.92578125 4.44921875 C-18.41365882 -0.73140872 -9.67924073 -1.58676077 0 0 Z " fill="#12C864" transform="translate(169,50)"/>
<path d="M0 0 C3.06436352 2.75792717 4.92233707 4.98325636 6 9 C5.625 11.8125 5.625 11.8125 5 14 C3.02 13.34 1.04 12.68 -1 12 C-0.7834375 12.73605469 -0.566875 13.47210938 -0.34375 14.23046875 C-0.0653125 15.20628906 0.213125 16.18210937 0.5 17.1875 C0.91765625 18.63189453 0.91765625 18.63189453 1.34375 20.10546875 C1.96677608 22.85345876 2.12302812 25.19598416 2 28 C-0.3125 28.625 -0.3125 28.625 -3 29 C-3.99 28.34 -4.98 27.68 -6 27 C-4.68 27 -3.36 27 -2 27 C-2 26.34 -2 25.68 -2 25 C-1.34 25 -0.68 25 0 25 C-0.33 24.46375 -0.66 23.9275 -1 23.375 C-2.22699204 20.4608939 -2.14233286 18.13132292 -2 15 C-2.66 15 -3.32 15 -4 15 C-4 12.36 -4 9.72 -4 7 C-3.34 7 -2.68 7 -2 7 C-2 5.02 -2 3.04 -2 1 C-1.34 0.67 -0.68 0.34 0 0 Z " fill="#1AE071" transform="translate(306,269)"/>
<path d="M0 0 C0.99 0.33 1.98 0.66 3 1 C3.05845252 5.49994472 3.09374855 9.99979063 3.125 14.5 C3.14175781 15.7684375 3.15851563 17.036875 3.17578125 18.34375 C3.21007038 24.92726319 3.01605485 30.71371872 1 37 C0.67 37 0.34 37 0 37 C-0.33 34.36 -0.66 31.72 -1 29 C-1.33 29 -1.66 29 -2 29 C-1.8594438 25.66642262 -1.71158198 22.33320611 -1.5625 19 C-1.52318359 18.06542969 -1.48386719 17.13085938 -1.44335938 16.16796875 C-1.19609347 10.72811877 -0.75680832 5.39305423 0 0 Z " fill="#05A64A" transform="translate(212,76)"/>
<path d="M0 0 C0.33 0 0.66 0 1 0 C1.33 2.31 1.66 4.62 2 7 C2.33 7 2.66 7 3 7 C3.34715551 13.01736213 2.36477106 17.94228324 0.80078125 23.74609375 C-0.51717255 29.10148651 -1.25149929 34.54034777 -2 40 C-0.68 40.33 0.64 40.66 2 41 C2 41.99 2 42.98 2 44 C1.34 44 0.68 44 0 44 C0 43.34 0 42.68 0 42 C-1.98 42 -3.96 42 -6 42 C-6.2919519 36.45291384 -5.19088986 31.38027025 -4 26 C-3.34 26 -2.68 26 -2 26 C-0.92375586 20.55547082 -0.67807034 15.15417411 -0.4375 9.625 C-0.39431641 8.69816406 -0.35113281 7.77132812 -0.30664062 6.81640625 C-0.20123814 4.54439706 -0.09911394 2.27229075 0 0 Z " fill="#1BD86C" transform="translate(272,128)"/>
<path d="M0 0 C0 0.99 0 1.98 0 3 C-3 5 -3 5 -6 5 C-6.66 6.32 -7.32 7.64 -8 9 C-8.66 9 -9.32 9 -10 9 C-10 9.66 -10 10.32 -10 11 C-10.66 11 -11.32 11 -12 11 C-12 11.66 -12 12.32 -12 13 C-13.32 13 -14.64 13 -16 13 C-16.103125 13.639375 -16.20625 14.27875 -16.3125 14.9375 C-16.539375 15.618125 -16.76625 16.29875 -17 17 C-17.99 17.33 -18.98 17.66 -20 18 C-20 19.65 -20 21.3 -20 23 C-20.66 23 -21.32 23 -22 23 C-20.79538504 15.35822385 -19.45073972 10.15827674 -13.125 5.40234375 C-12.42375 4.93957031 -11.7225 4.47679687 -11 4 C-10.360625 3.56816406 -9.72125 3.13632812 -9.0625 2.69140625 C-5.73313542 0.61772874 -4.00234088 0 0 0 Z " fill="#13C765" transform="translate(238,51)"/>
<path d="M0 0 C0.33 0 0.66 0 1 0 C1.92947107 4.70203014 2.13223651 9.24812235 2.09765625 14.0234375 C2.0962413 14.76961334 2.09482635 15.51578918 2.09336853 16.28457642 C2.08780874 18.64809318 2.07526389 21.01151227 2.0625 23.375 C2.0574798 24.98567571 2.0529178 26.59635291 2.04882812 28.20703125 C2.03785251 32.13805799 2.02061596 36.06901248 2 40 C1.01 40.495 1.01 40.495 0 41 C-0.99701811 32.28120152 -1.15136125 23.64450763 -1.125 14.875 C-1.12857031 13.5364574 -1.1324746 12.19791564 -1.13671875 10.859375 C-1.13542969 9.60382813 -1.13414062 8.34828125 -1.1328125 7.0546875 C-1.13168457 5.91499512 -1.13055664 4.77530273 -1.12939453 3.60107422 C-1 1 -1 1 0 0 Z " fill="#0AED6F" transform="translate(197,90)"/>
<path d="M0 0 C-0.99 0.495 -0.99 0.495 -2 1 C-2.433125 1.928125 -2.433125 1.928125 -2.875 2.875 C-4.76043728 6.43638154 -7.25053925 7.75017975 -11 9 C-11.474375 9.680625 -11.94875 10.36125 -12.4375 11.0625 C-12.953125 11.701875 -13.46875 12.34125 -14 13 C-15.32 13 -16.64 13 -18 13 C-18 13.66 -18 14.32 -18 15 C-18.99 14.67 -19.98 14.34 -21 14 C-19.4364824 9.3094472 -15.57434687 7.51196154 -11.625 4.75 C-10.45324219 3.89921875 -10.45324219 3.89921875 -9.2578125 3.03125 C-8.505 2.50015625 -7.7521875 1.9690625 -6.9765625 1.421875 C-6.28643066 0.93299805 -5.59629883 0.44412109 -4.88525391 -0.05957031 C-3 -1 -3 -1 0 0 Z " fill="#15BF66" transform="translate(214,243)"/>
<path d="M0 0 C0.66 0.33 1.32 0.66 2 1 C2 1.66 2 2.32 2 3 C1.34 3 0.68 3 0 3 C0 3.66 0 4.32 0 5 C-0.66 5 -1.32 5 -2 5 C-2 5.66 -2 6.32 -2 7 C-2.66 7 -3.32 7 -4 7 C-4 7.66 -4 8.32 -4 9 C-4.66 9 -5.32 9 -6 9 C-6 10.32 -6 11.64 -6 13 C-6.66 13 -7.32 13 -8 13 C-8.66 14.32 -9.32 15.64 -10 17 C-11.65 16.67 -13.3 16.34 -15 16 C-13.42529581 12.17444746 -10.99021491 9.75542436 -8.0625 6.875 C-7.18722656 6.00617188 -6.31195313 5.13734375 -5.41015625 4.2421875 C-3 2 -3 2 0 0 Z " fill="#15DA71" transform="translate(130,173)"/>
<path d="M0 0 C0.66 0 1.32 0 2 0 C2 8.91 2 17.82 2 27 C2.66 27 3.32 27 4 27 C4 33.27 4 39.54 4 46 C3.67 46 3.34 46 3 46 C2.95101562 44.96359375 2.90203125 43.9271875 2.8515625 42.859375 C2.77650403 41.48955792 2.70095753 40.11976752 2.625 38.75 C2.57859375 37.72712891 2.57859375 37.72712891 2.53125 36.68359375 C2.35152012 32.77202732 2.35152012 32.77202732 0.98632812 29.1640625 C-0.34094536 26.25194563 -0.2254277 23.89533645 -0.1953125 20.703125 C-0.18886719 19.49785156 -0.18242188 18.29257813 -0.17578125 17.05078125 C-0.15064453 15.16939453 -0.15064453 15.16939453 -0.125 13.25 C-0.11597656 11.98027344 -0.10695313 10.71054688 -0.09765625 9.40234375 C-0.07409005 6.26803907 -0.04118832 3.13411459 0 0 Z " fill="#21E777" transform="translate(128,77)"/>
<path d="M0 0 C2.31 0.33 4.62 0.66 7 1 C7 1.66 7 2.32 7 3 C7.66 3 8.32 3 9 3 C9 4.65 9 6.3 9 8 C8.01 8 7.02 8 6 8 C5.67 9.98 5.34 11.96 5 14 C3.046875 12.85546875 3.046875 12.85546875 1 11 C0.390625 8.30078125 0.390625 8.30078125 0.25 5.3125 C0.19328125 4.31863281 0.1365625 3.32476562 0.078125 2.30078125 C0.05234375 1.54152344 0.0265625 0.78226563 0 0 Z " fill="#0DBA5C" transform="translate(279,255)"/>
<path d="M0 0 C2.19858192 3.29787288 3.08315174 6.13806357 4.1875 9.9375 C4.55230469 11.16339844 4.91710937 12.38929688 5.29296875 13.65234375 C5.93853762 16.70898753 6.1197357 18.15430227 5 21 C4.01 21 3.02 21 2 21 C-0.23007556 13.5538155 -1.409845 7.69006362 0 0 Z " fill="#07A948" transform="translate(309,238)"/>
<path d="M0 0 C0 1.32 0 2.64 0 4 C-7.41430591 5.83717315 -14.37685526 6.23576736 -22 6 C-21.67 5.34 -21.34 4.68 -21 4 C-18.4375 3.375 -18.4375 3.375 -16 3 C-16 2.67 -16 2.34 -16 2 C-14.27192682 1.66104344 -12.54248026 1.32908475 -10.8125 1 C-9.84957031 0.814375 -8.88664063 0.62875 -7.89453125 0.4375 C-5.2065794 0.03122388 -2.71228981 -0.07933572 0 0 Z " fill="#0BC263" transform="translate(240,299)"/>
<path d="M0 0 C2.12843845 3.19265768 2.53244346 5.07375043 3.125 8.8125 C3.29257813 9.82957031 3.46015625 10.84664063 3.6328125 11.89453125 C3.99555755 14.96242818 4.06457941 17.9140266 4 21 C-0.74074074 17.71794872 -0.74074074 17.71794872 -1.8125 14.75 C-2.55670103 3.83505155 -2.55670103 3.83505155 0 0 Z " fill="#0CB35A" transform="translate(102,320)"/>
<path d="M0 0 C4.62 0 9.24 0 14 0 C14 0.33 14 0.66 14 1 C13.32453125 1.04898437 12.6490625 1.09796875 11.953125 1.1484375 C11.06109375 1.22320312 10.1690625 1.29796875 9.25 1.375 C7.92742187 1.47941406 7.92742187 1.47941406 6.578125 1.5859375 C4.02636662 1.85118347 4.02636662 1.85118347 2.08984375 3.02734375 C-6.69848308 7.11761175 -22.33398178 3.66254225 -32 3 C-32 2.67 -32 2.34 -32 2 C-21.44 2 -10.88 2 0 2 C0 1.34 0 0.68 0 0 Z " fill="#1DED7A" transform="translate(224,324)"/>
<path d="M0 0 C-1.28062485 1.7074998 -2.61767557 3.37373596 -4 5 C-4.66 5 -5.32 5 -6 5 C-6 5.66 -6 6.32 -6 7 C-7.32 7 -8.64 7 -10 7 C-10 7.66 -10 8.32 -10 9 C-14.455 9.495 -14.455 9.495 -19 10 C-7.47058824 -2.49019608 -7.47058824 -2.49019608 0 0 Z " fill="#18CD6B" transform="translate(308,177)"/>
<path d="M0 0 C0.33 0 0.66 0 1 0 C3.10185545 6.53238527 2.89911051 11.31091984 1.625 18 C1.47289062 18.87011719 1.32078125 19.74023438 1.1640625 20.63671875 C0.79066184 22.76043502 0.39738005 24.88063973 0 27 C-0.99 27 -1.98 27 -3 27 C-3 23.37 -3 19.74 -3 16 C-2.34 16 -1.68 16 -1 16 C-0.67 10.72 -0.34 5.44 0 0 Z " fill="#19AF58" transform="translate(276,112)"/>
<path d="M0 0 C2.96404505 2.80804268 5.44499019 5.18315774 7 9 C4.78071806 11.90802461 3.07030857 13.95312762 0 16 C-0.99 16 -1.98 16 -3 16 C-3 14.35 -3 12.7 -3 11 C-1.02 11 0.96 11 3 11 C3 10.34 3 9.68 3 9 C2.34 9 1.68 9 1 9 C1 7.02 1 5.04 1 3 C0.34 2.67 -0.32 2.34 -1 2 C-0.67 1.34 -0.34 0.68 0 0 Z " fill="#17F380" transform="translate(127,269)"/>
<path d="M0 0 C1.32 0.66 2.64 1.32 4 2 C2.71034824 3.37562854 1.37310707 4.70766393 0 6 C-0.66 6 -1.32 6 -2 6 C-1.01 11.61 -0.02 17.22 1 23 C0.01 23.33 -0.98 23.66 -2 24 C-2 22.02 -2 20.04 -2 18 C-2.66 18 -3.32 18 -4 18 C-4 13.38 -4 8.76 -4 4 C-3.34 4 -2.68 4 -2 4 C-2 3.34 -2 2.68 -2 2 C-1.34 2 -0.68 2 0 2 C0 1.34 0 0.68 0 0 Z " fill="#16D66D" transform="translate(304,200)"/>
<path d="M0 0 C-0.5260925 3.78786597 -1.38103911 6.17152224 -4 9 C-4.66 9 -5.32 9 -6 9 C-6 9.66 -6 10.32 -6 11 C-8.31 11 -10.62 11 -13 11 C-13 10.01 -13 9.02 -13 8 C-10.6640625 5.95703125 -10.6640625 5.95703125 -7.625 3.8125 C-6.12839844 2.73935547 -6.12839844 2.73935547 -4.6015625 1.64453125 C-2 0 -2 0 0 0 Z " fill="#17CA66" transform="translate(328,159)"/>
<path d="M0 0 C1.66519519 0.34060811 3.33157466 0.67558396 5 1 C1.81237635 3.12508244 -0.26512223 3.5020163 -4 4 C-4 4.66 -4 5.32 -4 6 C-4.66 6 -5.32 6 -6 6 C-6 6.66 -6 7.32 -6 8 C-7.98 8 -9.96 8 -12 8 C-9.62625211 2.37796552 -6.60115582 -2.47543343 0 0 Z " fill="#14C769" transform="translate(176,212)"/>
<path d="M0 0 C1.32 0.33 2.64 0.66 4 1 C4 2.32 4 3.64 4 5 C3.34 5 2.68 5 2 5 C2 5.66 2 6.32 2 7 C1.34 7 0.68 7 0 7 C0 9.64 0 12.28 0 15 C1.32 15.33 2.64 15.66 4 16 C3.67 16.66 3.34 17.32 3 18 C0.4375 18.625 0.4375 18.625 -2 19 C-3.29384979 14.51865271 -2.61333104 11.18505684 -1.5625 6.6875 C-1.13130859 4.80611328 -1.13130859 4.80611328 -0.69140625 2.88671875 C-0.46324219 1.93410156 -0.23507813 0.98148438 0 0 Z " fill="#14EC72" transform="translate(90,249)"/>
<path d="M0 0 C0.08333357 4.8333472 -0.04738513 9.23692563 -1 14 C-1.66 14 -2.32 14 -3 14 C-3.33 15.32 -3.66 16.64 -4 18 C-4.08333357 13.1666528 -3.95261487 8.76307437 -3 4 C-4.98 4 -6.96 4 -9 4 C-9.33 3.01 -9.66 2.02 -10 1 C-6.56484998 0.37542727 -3.50935186 0 0 0 Z " fill="#0BCA63" transform="translate(103,277)"/>
<path d="M0 0 C0.66 0 1.32 0 2 0 C1.54917531 1.46067199 1.08906463 2.91848032 0.625 4.375 C0.36976563 5.18710938 0.11453125 5.99921875 -0.1484375 6.8359375 C-1 9 -1 9 -3 11 C-2.34 11 -1.68 11 -1 11 C-1 20.9 -1 30.8 -1 41 C-1.33 41 -1.66 41 -2 41 C-2.33 32.42 -2.66 23.84 -3 15 C-3.33 15 -3.66 15 -4 15 C-4.45356243 8.53673535 -3.59378942 5.39068413 0 0 Z " fill="#17DD71" transform="translate(217,65)"/>
<path d="M0 0 C1.72357119 2.58535679 2.44735018 4.03811614 3.1875 6.9375 C3.36667969 7.60652344 3.54585938 8.27554688 3.73046875 8.96484375 C4.03844785 11.29030911 3.8191614 12.80767788 3 15 C2.01 15.495 2.01 15.495 1 16 C0.46906676 14.06524329 -0.04942317 12.12706845 -0.5625 10.1875 C-0.85253906 9.10855469 -1.14257812 8.02960938 -1.44140625 6.91796875 C-2 4 -2 4 -1 1 C-0.67 0.67 -0.34 0.34 0 0 Z " fill="#06813B" transform="translate(282,231)"/>
<path d="M0 0 C0.66 0 1.32 0 2 0 C2 0.99 2 1.98 2 3 C2.56509277 2.98952637 3.13018555 2.97905273 3.71240234 2.96826172 C6.26655653 2.92675212 8.82063982 2.9006904 11.375 2.875 C12.26445312 2.85824219 13.15390625 2.84148437 14.0703125 2.82421875 C14.92109375 2.81777344 15.771875 2.81132812 16.6484375 2.8046875 C17.82672119 2.78897705 17.82672119 2.78897705 19.02880859 2.77294922 C21 3 21 3 23 5 C15.74 5 8.48 5 1 5 C0.67 3.35 0.34 1.7 0 0 Z " fill="#07D35C" transform="translate(188,324)"/>
<path d="M0 0 C1.32 0.33 2.64 0.66 4 1 C3.67 5.29 3.34 9.58 3 14 C2.01 13.67 1.02 13.34 0 13 C0 11.02 0 9.04 0 7 C-0.66 6.67 -1.32 6.34 -2 6 C-1.34 4.02 -0.68 2.04 0 0 Z " fill="#14DC75" transform="translate(122,253)"/>
<path d="M0 0 C0.99 0 1.98 0 3 0 C6.57142857 7.28571429 6.57142857 7.28571429 5 12 C2.525 11.01 2.525 11.01 0 10 C0 6.66666667 0 3.33333333 0 0 Z " fill="#139A4A" transform="translate(306,271)"/>
<path d="M0 0 C0 0.66 0 1.32 0 2 C-1.42578125 3.1484375 -1.42578125 3.1484375 -3.3125 4.375 C-6.18331762 6.32161074 -7.93328002 8.20992802 -10 11 C-10.99 11 -11.98 11 -13 11 C-13 10.34 -13 9.68 -13 9 C-12.34 9 -11.68 9 -11 9 C-11 8.34 -11 7.68 -11 7 C-10.34 7 -9.68 7 -9 7 C-9 5.02 -9 3.04 -9 1 C-2.25 0 -2.25 0 0 0 Z " fill="#10DA64" transform="translate(149,187)"/>
<path d="M0 0 C-2 2 -2 2 -5.4765625 2.1953125 C-6.85950968 2.18201493 -8.24238654 2.15816232 -9.625 2.125 C-10.33140625 2.11597656 -11.0378125 2.10695312 -11.765625 2.09765625 C-13.51056098 2.07407603 -15.25532295 2.03820461 -17 2 C-17 2.66 -17 3.32 -17 4 C-18.65 4 -20.3 4 -22 4 C-22 3.34 -22 2.68 -22 2 C-14.36384685 -0.79371457 -7.94380652 -1.17085584 0 0 Z " fill="#19D46A" transform="translate(169,50)"/>
<path d="M0 0 C0 0.66 0 1.32 0 2 C-0.66 2 -1.32 2 -2 2 C-2.66 3.32 -3.32 4.64 -4 6 C-4.66 6 -5.32 6 -6 6 C-6 6.66 -6 7.32 -6 8 C-7.98 8 -9.96 8 -12 8 C-12.33 7.34 -12.66 6.68 -13 6 C-11.92250558 5.17977251 -10.83770492 4.36913831 -9.75 3.5625 C-9.14671875 3.11003906 -8.5434375 2.65757812 -7.921875 2.19140625 C-5.31259627 0.57386557 -3.05547025 0 0 0 Z " fill="#18C96A" transform="translate(160,282)"/>
<path d="M0 0 C5.94 0 11.88 0 18 0 C18 0.66 18 1.32 18 2 C14.81175432 3.59412284 11.37103338 3.10174735 7.875 3.0625 C7.12089844 3.05798828 6.36679687 3.05347656 5.58984375 3.04882812 C3.72652873 3.03703499 1.86325445 3.01909942 0 3 C0 2.01 0 1.02 0 0 Z " fill="#18D971" transform="translate(314,194)"/>
<path d="M0 0 C0.66 0 1.32 0 2 0 C3.84651134 3.11598788 4.38079379 5.38245897 4 9 C2 11 2 11 -1.625 11.125 C-2.73875 11.08375 -3.8525 11.0425 -5 11 C-4.0409375 10.2265625 -4.0409375 10.2265625 -3.0625 9.4375 C-0.44208319 6.34064377 -0.30610183 3.97932377 0 0 Z " fill="#0CBC59" transform="translate(137,162)"/>
<path d="M0 0 C0.99 0.33 1.98 0.66 3 1 C3 1.66 3 2.32 3 3 C2.34 3 1.68 3 1 3 C1 3.66 1 4.32 1 5 C-2 7 -2 7 -5 7 C-5 7.66 -5 8.32 -5 9 C-6.32 8.34 -7.64 7.68 -9 7 C-7.87720538 6.01830524 -6.75168527 5.03972702 -5.625 4.0625 C-4.68527344 3.24458984 -4.68527344 3.24458984 -3.7265625 2.41015625 C-2 1 -2 1 0 0 Z " fill="#14B55E" transform="translate(145,53)"/>
<path d="M0 0 C1.98 0 3.96 0 6 0 C5 3 5 3 2 4.6875 C-2.30110524 6.40436529 -6.43709444 6.27936157 -11 6 C-11 5.34 -11 4.68 -11 4 C-8.03 4 -5.06 4 -2 4 C-2 3.34 -2 2.68 -2 2 C-1.34 2 -0.68 2 0 2 C0 1.34 0 0.68 0 0 Z " fill="#1CE77A" transform="translate(186,236)"/>
<path d="M0 0 C1.32 0 2.64 0 4 0 C4 0.66 4 1.32 4 2 C3.34 2 2.68 2 2 2 C2 2.66 2 3.32 2 4 C0.68 4 -0.64 4 -2 4 C-2.103125 4.639375 -2.20625 5.27875 -2.3125 5.9375 C-2.539375 6.618125 -2.76625 7.29875 -3 8 C-3.99 8.33 -4.98 8.66 -6 9 C-6 10.65 -6 12.3 -6 14 C-6.66 14 -7.32 14 -8 14 C-7.34 10.7 -6.68 7.4 -6 4 C-4.02 3.34 -2.04 2.68 0 2 C0 1.34 0 0.68 0 0 Z " fill="#0EC45F" transform="translate(224,60)"/>
<path d="M0 0 C2.97 0.99 5.94 1.98 9 3 C8.67 6.3 8.34 9.6 8 13 C7.34 13 6.68 13 6 13 C5.690625 11.906875 5.38125 10.81375 5.0625 9.6875 C4.41662103 7.44592006 3.7376883 5.2130649 3 3 C2.01 2.67 1.02 2.34 0 2 C0 1.34 0 0.68 0 0 Z " fill="#15D86B" transform="translate(342,157)"/>
<path d="M0 0 C0 0.33 0 0.66 0 1 C-0.95712891 1.30744141 -0.95712891 1.30744141 -1.93359375 1.62109375 C-2.75988281 1.89050781 -3.58617187 2.15992188 -4.4375 2.4375 C-5.67306641 2.83775391 -5.67306641 2.83775391 -6.93359375 3.24609375 C-8.96219588 3.82155494 -8.96219588 3.82155494 -10 5 C-12.67058851 5.14115161 -15.32432238 5.04247107 -18 5 C-18 4.01 -18 3.02 -18 2 C-16.95199219 1.90912109 -16.95199219 1.90912109 -15.8828125 1.81640625 C-14.97273437 1.73261719 -14.06265625 1.64882813 -13.125 1.5625 C-12.22007812 1.48128906 -11.31515625 1.40007812 -10.3828125 1.31640625 C-0.40313653 -0.00876384 -0.40313653 -0.00876384 0 0 Z " fill="#0EF075" transform="translate(238,303)"/>
<path d="M0 0 C0.33 0.99 0.66 1.98 1 3 C0.34 3 -0.32 3 -1 3 C-1 3.66 -1 4.32 -1 5 C-1.99 5 -2.98 5 -4 5 C-4.33 5.99 -4.66 6.98 -5 8 C-7.31 7.67 -9.62 7.34 -12 7 C-8.35140239 3.95950199 -4.2555467 2.03481238 0 0 Z " fill="#11C15F" transform="translate(265,287)"/>
<path d="M0 0 C2.64 0 5.28 0 8 0 C8 0.66 8 1.32 8 2 C9.32 2 10.64 2 12 2 C12 2.66 12 3.32 12 4 C7.04653013 5.59789351 2.86717585 4.28306814 -2 3 C-1.34 2.67 -0.68 2.34 0 2 C0 1.34 0 0.68 0 0 Z " fill="#0CE971" transform="translate(200,228)"/>
<path d="M0 0 C0.99 0.33 1.98 0.66 3 1 C2.51171875 7.0546875 2.51171875 7.0546875 2 9 C1.01 9.66 0.02 10.32 -1 11 C-1.66 10.67 -2.32 10.34 -3 10 C-2.01 6.7 -1.02 3.4 0 0 Z " fill="#0BBB58" transform="translate(98,219)"/>
<path d="M0 0 C0.66 0 1.32 0 2 0 C1.67 2.64 1.34 5.28 1 8 C2.32 8.33 3.64 8.66 5 9 C5 9.99 5 10.98 5 12 C4.34 12 3.68 12 3 12 C3 11.34 3 10.68 3 10 C1.02 10 -0.96 10 -3 10 C-3.2295711 6.63295715 -3.33943529 4.58629732 -1.625 1.625 C-1.08875 1.08875 -0.5525 0.5525 0 0 Z " fill="#11C35D" transform="translate(269,160)"/>
<path d="M0 0 C0.66 0.33 1.32 0.66 2 1 C1.34 3.64 0.68 6.28 0 9 C0.99 9.33 1.98 9.66 3 10 C-0.75 13 -0.75 13 -3 13 C-3.33 11.02 -3.66 9.04 -4 7 C-3.34 7 -2.68 7 -2 7 C-2 5.02 -2 3.04 -2 1 C-1.34 0.67 -0.68 0.34 0 0 Z " fill="#0ED862" transform="translate(306,269)"/>
<path d="M0 0 C0.66 0.33 1.32 0.66 2 1 C2 1.66 2 2.32 2 3 C1.34 3 0.68 3 0 3 C0 3.66 0 4.32 0 5 C-0.66 5 -1.32 5 -2 5 C-2 5.66 -2 6.32 -2 7 C-2.66 7 -3.32 7 -4 7 C-4 7.66 -4 8.32 -4 9 C-4.66 9 -5.32 9 -6 9 C-6 10.32 -6 11.64 -6 13 C-7.32 13 -8.64 13 -10 13 C-7.83825589 7.89042302 -3.99182242 3.78172651 0 0 Z " fill="#13C465" transform="translate(130,173)"/>
<path d="M0 0 C1.06528748 2.73019786 1.07998186 3.79298812 0.00390625 6.578125 C-0.47175781 7.45984375 -0.94742188 8.3415625 -1.4375 9.25 C-1.91058594 10.14203125 -2.38367188 11.0340625 -2.87109375 11.953125 C-3.24363281 12.62859375 -3.61617187 13.3040625 -4 14 C-4.66 14 -5.32 14 -6 14 C-6.20086443 10.28400809 -6.1519437 9.22791555 -4 6 C-3.34 6 -2.68 6 -2 6 C-2 4.68 -2 3.36 -2 2 C-1.34 2 -0.68 2 0 2 C0 1.34 0 0.68 0 0 Z " fill="#13D86E" transform="translate(186,328)"/>
<path d="M0 0 C0 0.66 0 1.32 0 2 C-0.66 2 -1.32 2 -2 2 C-2 2.66 -2 3.32 -2 4 C-4.97851562 4.29296875 -4.97851562 4.29296875 -7.95703125 4.5859375 C-10.29988142 4.92665391 -10.29988142 4.92665391 -13 7 C-13.66 6.34 -14.32 5.68 -15 5 C-12.17765359 2.34367397 -10.75408124 1.04435772 -6.8125 0.8125 C-5.4203125 0.9053125 -5.4203125 0.9053125 -4 1 C-2 0 -2 0 0 0 Z " fill="#12F77C" transform="translate(250,216)"/>
<path d="M0 0 C1.7074998 1.28062485 3.37373596 2.61767557 5 4 C5 4.66 5 5.32 5 6 C7.64 6 10.28 6 13 6 C12.01 7.485 12.01 7.485 11 9 C5.37082652 8.59791618 2.99613521 6.71069698 -1 3 C-0.67 2.01 -0.34 1.02 0 0 Z " fill="#14E472" transform="translate(257,184)"/>
<path d="M0 0 C0.99 1.32 1.98 2.64 3 4 C2.67 4.66 2.34 5.32 2 6 C1.77532169 7.53668865 1.59203195 9.07968054 1.4375 10.625 C1.35371094 11.44226563 1.26992188 12.25953125 1.18359375 13.1015625 C1.12300781 13.72804688 1.06242187 14.35453125 1 15 C0.34 15 -0.32 15 -1 15 C-1 13.68 -1 12.36 -1 11 C-1.66 11 -2.32 11 -3 11 C-2.690625 10.29875 -2.38125 9.5975 -2.0625 8.875 C-0.96697322 5.91063343 -0.43577008 3.12301892 0 0 Z " fill="#10F275" transform="translate(281,265)"/>
<path d="M0 0 C0.66 0.33 1.32 0.66 2 1 C2 2.65 2 4.3 2 6 C-1.28696233 6.79953138 -2.71023192 7.09658936 -6 6 C-5.67 5.01 -5.34 4.02 -5 3 C-3.35 3 -1.7 3 0 3 C0 2.01 0 1.02 0 0 Z " fill="#15EA73" transform="translate(314,263)"/>
<path d="M0 0 C1.32 0 2.64 0 4 0 C4 4 4 4 2 6.25 C1.01 7.11625 1.01 7.11625 0 8 C-0.99 7.67 -1.98 7.34 -3 7 C-1.125 2.25 -1.125 2.25 0 0 Z " fill="#0DC25C" transform="translate(112,191)"/>
<path d="M0 0 C0 0.66 0 1.32 0 2 C-1.609375 3.32421875 -1.609375 3.32421875 -3.75 4.6875 C-4.44609375 5.14511719 -5.1421875 5.60273438 -5.859375 6.07421875 C-8.39090725 7.16906025 -9.46100862 6.9435441 -12 6 C-9.86415925 3.65057518 -7.88788523 2.30420623 -5 1 C-3 0 -3 0 0 0 Z " fill="#0BCF67" transform="translate(284,194)"/>
<path d="M0 0 C1.65 0 3.3 0 5 0 C5.33 1.32 5.66 2.64 6 4 C2.04 4 -1.92 4 -6 4 C-5.67 3.34 -5.34 2.68 -5 2 C-2.4375 1.375 -2.4375 1.375 0 1 C0 0.67 0 0.34 0 0 Z " fill="#0CB357" transform="translate(224,301)"/>
<path d="M0 0 C-0.5859375 6.15234375 -0.5859375 6.15234375 -1 8 C-1.99 8.495 -1.99 8.495 -3 9 C-3.99 6.36 -4.98 3.72 -6 1 C-4 0 -4 0 0 0 Z " fill="#097A31" transform="translate(98,264)"/>
<path d="M0 0 C0.33 0 0.66 0 1 0 C1 3.3 1 6.6 1 10 C0.34 10 -0.32 10 -1 10 C-1 12.64 -1 15.28 -1 18 C-1.33 18 -1.66 18 -2 18 C-2 13.38 -2 8.76 -2 4 C-1.34 4 -0.68 4 0 4 C0 2.68 0 1.36 0 0 Z " fill="#21E97A" transform="translate(270,150)"/>
<path d="M0 0 C0.33 0 0.66 0 1 0 C0.67 2.64 0.34 5.28 0 8 C0.66 8.33 1.32 8.66 2 9 C1.67 10.65 1.34 12.3 1 14 C0.01 14 -0.98 14 -2 14 C-2 10.37 -2 6.74 -2 3 C-1.34 3 -0.68 3 0 3 C0 2.01 0 1.02 0 0 Z " fill="#059D3E" transform="translate(275,125)"/>
<path d="M0 0 C-1 3 -1 3 -2.75 4.25 C-5.52724898 5.17574966 -7.21571665 4.77341204 -10 4 C-4.4 -2.2 -4.4 -2.2 0 0 Z " fill="#11C565" transform="translate(171,275)"/>
<path d="M0 0 C1.65 0.33 3.3 0.66 5 1 C5 4 5 4 4 6 C2.02 6 0.04 6 -2 6 C-2 5.34 -2 4.68 -2 4 C-1.01 4 -0.02 4 1 4 C0.67 2.68 0.34 1.36 0 0 Z " fill="#05E667" transform="translate(310,260)"/>
<path d="M0 0 C-0.33 0.66 -0.66 1.32 -1 2 C-2.33333333 2.33333333 -3.66666667 2.66666667 -5 3 C-5.33 3.66 -5.66 4.32 -6 5 C-7.65 4.67 -9.3 4.34 -11 4 C-7.39482939 0.00856111 -5.29679003 -1.76559668 0 0 Z " fill="#0FC763" transform="translate(136,301)"/>
<path d="M0 0 C0.99 0.33 1.98 0.66 3 1 C2.01 1.495 2.01 1.495 1 2 C0.71125 2.639375 0.4225 3.27875 0.125 3.9375 C-1.22909764 6.42001234 -2.42178493 6.96871397 -5 8 C-3.375 2.25 -3.375 2.25 0 0 Z " fill="#0FCE68" transform="translate(211,242)"/>
<path d="M0 0 C2.09782787 2.09782787 2.6509396 3.3799207 3.625 6.125 C3.88539063 6.84945312 4.14578125 7.57390625 4.4140625 8.3203125 C4.70410156 9.15175781 4.70410156 9.15175781 5 10 C2.5625 9.3125 2.5625 9.3125 0 8 C-1.1807689 4.71071522 -1.1157177 3.34715311 0 0 Z " fill="#0BD469" transform="translate(189,65)"/>
<path d="M0 0 C1.65 0 3.3 0 5 0 C4.49287967 3.71888239 3.88391785 6.73454239 2 10 C1.34 10 0.68 10 0 10 C0.51625958 7.9349617 1.03191496 5.90135375 1.6875 3.875 C1.790625 3.25625 1.89375 2.6375 2 2 C1.34 1.34 0.68 0.68 0 0 Z " fill="#14B65F" transform="translate(222,285)"/>
<path d="M0 0 C-0.33 0.99 -0.66 1.98 -1 3 C-4.1967 4.37001429 -6.69903842 3.8252404 -10 3 C-10 2.34 -10 1.68 -10 1 C-6.56484998 0.37542727 -3.50935186 0 0 0 Z " fill="#08773A" transform="translate(103,277)"/>
<path d="M0 0 C2.475 0.495 2.475 0.495 5 1 C5 4.96 5 8.92 5 13 C4.67 13 4.34 13 4 13 C3.87882812 12.43410156 3.75765625 11.86820313 3.6328125 11.28515625 C3.38144531 10.18494141 3.38144531 10.18494141 3.125 9.0625 C2.96257812 8.33160156 2.80015625 7.60070312 2.6328125 6.84765625 C2.17038477 4.79299706 2.17038477 4.79299706 0 4 C0 2.68 0 1.36 0 0 Z " fill="#15E472" transform="translate(281,229)"/>
<path d="M0 0 C1.22589844 0.01353516 1.22589844 0.01353516 2.4765625 0.02734375 C3.41628906 0.04474609 3.41628906 0.04474609 4.375 0.0625 C1.18737635 2.18758244 -0.89012223 2.5645163 -4.625 3.0625 C-4.625 3.7225 -4.625 4.3825 -4.625 5.0625 C-5.285 5.0625 -5.945 5.0625 -6.625 5.0625 C-6.625 3.7425 -6.625 2.4225 -6.625 1.0625 C-4.21954362 -0.14022819 -2.67503047 -0.03821472 0 0 Z " fill="#09DB67" transform="translate(176.625,212.9375)"/>
<path d="M0 0 C0.99 0.33 1.98 0.66 3 1 C0.69 3.64 -1.62 6.28 -4 9 C-5.32 8.67 -6.64 8.34 -8 8 C-7.195625 7.566875 -6.39125 7.13375 -5.5625 6.6875 C-2.72153646 5.19525998 -2.72153646 5.19525998 -2 2 C-1.34 2 -0.68 2 0 2 C0 1.34 0 0.68 0 0 Z " fill="#14F780" transform="translate(120,284)"/>
<path d="M0 0 C0 0.99 0 1.98 0 3 C-1.88057664 4.88057664 -4.57124096 4.46277585 -7.08984375 4.71875 C-9.08088347 4.91037786 -9.08088347 4.91037786 -11 6 C-10.67 5.01 -10.34 4.02 -10 3 C-6.76693609 1.38346804 -3.54971796 0.60852308 0 0 Z " fill="#13EC74" transform="translate(167,278)"/>
<path d="M0 0 C0.66 0 1.32 0 2 0 C2 1.32 2 2.64 2 4 C0.25 5.484375 0.25 5.484375 -2 6.75 C-3.11375 7.39195312 -3.11375 7.39195312 -4.25 8.046875 C-5.11625 8.51867187 -5.11625 8.51867187 -6 9 C-6 8.01 -6 7.02 -6 6 C-5.34 6 -4.68 6 -4 6 C-4 5.34 -4 4.68 -4 4 C-3.34 4 -2.68 4 -2 4 C-2 3.34 -2 2.68 -2 2 C-1.34 2 -0.68 2 0 2 C0 1.34 0 0.68 0 0 Z " fill="#06E269" transform="translate(130,176)"/>
<path d="M0 0 C1.32 0.66 2.64 1.32 4 2 C2.90241493 2.84198307 1.79664683 3.67330671 0.6875 4.5 C0.07261719 4.9640625 -0.54226562 5.428125 -1.17578125 5.90625 C-3 7 -3 7 -6 7 C-6 6.01 -6 5.02 -6 4 C-4.02 3.67 -2.04 3.34 0 3 C0 2.01 0 1.02 0 0 Z " fill="#10DE6E" transform="translate(230,252)"/>
<path d="M0 0 C0.66 0 1.32 0 2 0 C3.20272819 2.40545638 3.10071472 3.94996953 3.0625 6.625 C3.05347656 7.44226563 3.04445313 8.25953125 3.03515625 9.1015625 C3.02355469 9.72804687 3.01195312 10.35453125 3 11 C2.67 9.68 2.34 8.36 2 7 C1.34 7 0.68 7 0 7 C0 4.69 0 2.38 0 0 Z " fill="#1AA658" transform="translate(310,245)"/>
<path d="M0 0 C1.98 0 3.96 0 6 0 C4.6875 2.5 4.6875 2.5 3 5 C2.01 5 1.02 5 0 5 C0 3.35 0 1.7 0 0 Z " fill="#0DE973" transform="translate(124,280)"/>
<path d="M0 0 C0.33 0.99 0.66 1.98 1 3 C3.01508358 3.73323796 3.01508358 3.73323796 5 4 C3.25 5.125 3.25 5.125 1 6 C-1.25 5.125 -1.25 5.125 -3 4 C-2.01 2.68 -1.02 1.36 0 0 Z " fill="#07FC78" transform="translate(207,265)"/>
<path d="M0 0 C1.65 0 3.3 0 5 0 C5 0.66 5 1.32 5 2 C1.14243493 4.15305957 -1.55129785 5.39253254 -6 5 C-4.68 4.67 -3.36 4.34 -2 4 C-2 3.34 -2 2.68 -2 2 C-1.34 2 -0.68 2 0 2 C0 1.34 0 0.68 0 0 Z " fill="#20E87D" transform="translate(162,178)"/>
<path d="M0 0 C0.66 0 1.32 0 2 0 C2.1875 2.375 2.1875 2.375 2 5 C1.01 5.66 0.02 6.32 -1 7 C-1.99 6.67 -2.98 6.34 -4 6 C-3.525625 5.38125 -3.05125 4.7625 -2.5625 4.125 C-0.97582559 2.09294454 -0.97582559 2.09294454 0 0 Z " fill="#12CA65" transform="translate(110,314)"/>
<path d="M0 0 C2.6875 0.3125 2.6875 0.3125 5 1 C3.35 2.32 1.7 3.64 0 5 C-0.99 4.34 -1.98 3.68 -3 3 C-1.8125 1.4375 -1.8125 1.4375 0 0 Z " fill="#0DDF67" transform="translate(204,270)"/>
<path d="M0 0 C1.32 0.66 2.64 1.32 4 2 C3.34 2 2.68 2 2 2 C1.67 2.99 1.34 3.98 1 5 C-0.65 4.67 -2.3 4.34 -4 4 C-2.68 2.68 -1.36 1.36 0 0 Z " fill="#11BA5C" transform="translate(187,259)"/>
<path d="M0 0 C0.66 0.33 1.32 0.66 2 1 C1.67 1.33 1.34 1.66 1 2 C1.66 2.33 2.32 2.66 3 3 C3 3.66 3 4.32 3 5 C0.69 5 -1.62 5 -4 5 C-3 2 -3 2 0 0 Z " fill="#11E072" transform="translate(193,255)"/>
<path d="M0 0 C0.99 0.33 1.98 0.66 3 1 C4.66621616 1.03874921 6.33394172 1.0450286 8 1 C6.35 2.65 4.7 4.3 3 6 C2.01 5.67 1.02 5.34 0 5 C0.66 5 1.32 5 2 5 C1.34 3.35 0.68 1.7 0 0 Z " fill="#13F577" transform="translate(306,195)"/>
<path d="M0 0 C1.65 0 3.3 0 5 0 C5.33 0.99 5.66 1.98 6 3 C3.69 3.33 1.38 3.66 -1 4 C-0.67 2.68 -0.34 1.36 0 0 Z " fill="#07E264" transform="translate(345,180)"/>
<path d="M0 0 C1.32 0 2.64 0 4 0 C4 0.66 4 1.32 4 2 C3.34 2 2.68 2 2 2 C2 2.66 2 3.32 2 4 C-0.64 4.33 -3.28 4.66 -6 5 C-5.67 4.34 -5.34 3.68 -5 3 C-2.4375 2.375 -2.4375 2.375 0 2 C0 1.34 0 0.68 0 0 Z " fill="#13D467" transform="translate(224,60)"/>
<path d="M0 0 C2.64752004 2.57784846 4.94432065 4.91648098 7 8 C5.68 8 4.36 8 3 8 C3 7.01 3 6.02 3 5 C2.34 5 1.68 5 1 5 C1 4.34 1 3.68 1 3 C0.34 2.67 -0.32 2.34 -1 2 C-0.67 1.34 -0.34 0.68 0 0 Z " fill="#16C269" transform="translate(127,269)"/>
<path d="M0 0 C2.31 0.33 4.62 0.66 7 1 C6.67 1.99 6.34 2.98 6 4 C4.35 4.33 2.7 4.66 1 5 C0.67 3.35 0.34 1.7 0 0 Z " fill="#0FAB5A" transform="translate(87,263)"/>
<path d="M0 0 C0.99 0 1.98 0 3 0 C1.60667426 3.36720387 0.0210714 4.9859524 -3 7 C-3.33 6.01 -3.66 5.02 -4 4 C-3.01 4 -2.02 4 -1 4 C-0.67 2.68 -0.34 1.36 0 0 Z " fill="#0DBA5F" transform="translate(172,350)"/>
<path d="M0 0 C1.32 0 2.64 0 4 0 C4 1.65 4 3.3 4 5 C2.68 4.67 1.36 4.34 0 4 C0 2.68 0 1.36 0 0 Z " fill="#12883E" transform="translate(284,258)"/>
<path d="M0 0 C0.66 0 1.32 0 2 0 C2 0.99 2 1.98 2 3 C2.66 3 3.32 3 4 3 C3.67 3.99 3.34 4.98 3 6 C-0.875 4.25 -0.875 4.25 -2 2 C-1.34 2 -0.68 2 0 2 C0 1.34 0 0.68 0 0 Z " fill="#07D565" transform="translate(164,229)"/>
<path d="M0 0 C2.97 0.495 2.97 0.495 6 1 C6 1.66 6 2.32 6 3 C5.34 3 4.68 3 4 3 C3.67 3.99 3.34 4.98 3 6 C2.67 4.68 2.34 3.36 2 2 C1.01 2.33 0.02 2.66 -1 3 C-0.67 2.01 -0.34 1.02 0 0 Z " fill="#11F375" transform="translate(114,189)"/>
<path d="M0 0 C0.66 0.33 1.32 0.66 2 1 C1.67 5.29 1.34 9.58 1 14 C0.67 14 0.34 14 0 14 C-0.19393875 11.85473901 -0.37998676 9.70876323 -0.5625 7.5625 C-0.71912109 5.77005859 -0.71912109 5.77005859 -0.87890625 3.94140625 C-0.91886719 2.97074219 -0.95882812 2.00007812 -1 1 C-0.67 0.67 -0.34 0.34 0 0 Z " fill="#3FF195" transform="translate(124,253)"/>
<path d="M0 0 C2 3 2 3 1.75 5.625 C1.5025 6.40875 1.255 7.1925 1 8 C0.01 8.495 0.01 8.495 -1 9 C-0.67 6.03 -0.34 3.06 0 0 Z " fill="#0DA54F" transform="translate(309,238)"/>
<path d="M0 0 C0.66 0 1.32 0 2 0 C2 0.99 2 1.98 2 3 C1.34 3 0.68 3 0 3 C-0.12375 3.804375 -0.2475 4.60875 -0.375 5.4375 C-0.58125 6.283125 -0.7875 7.12875 -1 8 C-1.99 8.495 -1.99 8.495 -3 9 C-2.44271087 5.65626525 -1.64826111 2.96687001 0 0 Z " fill="#15FA7E" transform="translate(102,211)"/>
<path d="M0 0 C1.65 0.33 3.3 0.66 5 1 C2.33440687 2.77706209 -0.0280615 3.87548273 -3 5 C-3.33 4.01 -3.66 3.02 -4 2 C-2.68 2 -1.36 2 0 2 C0 1.34 0 0.68 0 0 Z " fill="#0CDE68" transform="translate(154,182)"/>
<path d="M0 0 C1.32 0.33 2.64 0.66 4 1 C3.38125 1.4125 2.7625 1.825 2.125 2.25 C-0.06768281 4.05573879 -0.92788417 5.4090534 -2 8 C-2 6.02 -2 4.04 -2 2 C-1.34 2 -0.68 2 0 2 C0 1.34 0 0.68 0 0 Z " fill="#1FEF81" transform="translate(200,274)"/>
<path d="M0 0 C-1.32 1.32 -2.64 2.64 -4 4 C-4.99 3.34 -5.98 2.68 -7 2 C-7 1.34 -7 0.68 -7 0 C-3.98968256 -0.93423645 -3.13349732 -1.04449911 0 0 Z " fill="#0EB95D" transform="translate(308,177)"/>
<path d="M0 0 C0.33 0 0.66 0 1 0 C1.66 2.64 2.32 5.28 3 8 C1.68 8 0.36 8 -1 8 C-1.125 2.25 -1.125 2.25 0 0 Z " fill="#0CAB4B" transform="translate(267,162)"/>
<path d="M0 0 C0.66 0.66 1.32 1.32 2 2 C1.01 3.485 1.01 3.485 0 5 C-1.32 5 -2.64 5 -4 5 C-2.25 1.125 -2.25 1.125 0 0 Z " fill="#21D475" transform="translate(324,161)"/>
<path d="M0 0 C0.66 0 1.32 0 2 0 C1.01 2.97 0.02 5.94 -1 9 C-1.33 9 -1.66 9 -2 9 C-2.25 3.375 -2.25 3.375 0 0 Z " fill="#1FE87B" transform="translate(217,65)"/>
<path d="M0 0 C0.99 0.33 1.98 0.66 3 1 C2.01 1.495 2.01 1.495 1 2 C1 2.66 1 3.32 1 4 C-0.65 4.33 -2.3 4.66 -4 5 C-2.68 3.35 -1.36 1.7 0 0 Z " fill="#159850" transform="translate(223,58)"/>
</svg>
